<svg width="12" height="12" viewBox="0 0 12 12" fill="none" xmlns="http://www.w3.org/2000/svg">
<path d="M6.865 10.5C6.77709 10.6515 6.65092 10.7773 6.49911 10.8648C6.3473 10.9522 6.17519 10.9982 6 10.9982C5.82481 10.9982 5.6527 10.9522 5.50089 10.8648C5.34908 10.7773 5.22291 10.6515 5.135 10.5M9 4C9 3.20435 8.68393 2.44129 8.12132 1.87868C7.55871 1.31607 6.79565 1 6 1C5.20435 1 4.44129 1.31607 3.87868 1.87868C3.31607 2.44129 3 3.20435 3 4C3 7.5 1.5 8.5 1.5 8.5H10.5C10.5 8.5 9 7.5 9 4Z" stroke="#9A9A9A" stroke-linecap="round" stroke-linejoin="round"/>
</svg>
