<svg width="13" height="12" viewBox="0 0 13 12" fill="none" xmlns="http://www.w3.org/2000/svg">
<path d="M11.375 6.395C11.2898 7.2461 10.9438 8.0572 10.3774 8.73339C9.81102 9.40958 9.04773 9.9229 8.17685 10.2133C7.30596 10.5036 6.3635 10.5591 5.45974 10.373C4.55598 10.187 3.7283 9.76727 3.07355 9.16289C2.4188 8.5585 1.96406 7.79449 1.76254 6.96025C1.56102 6.12601 1.62106 5.25604 1.93563 4.45215C2.2502 3.64825 2.80629 2.94368 3.53883 2.42088C4.27137 1.89807 5.15006 1.57865 6.07209 1.5C5.53227 2.17413 5.27251 3.00472 5.34005 3.84071C5.40758 4.67669 5.79793 5.46253 6.4401 6.0553C7.08227 6.64807 7.93359 7.00839 8.83924 7.07073C9.74489 7.13308 10.6447 6.89329 11.375 6.395Z" stroke="#9A9A9A" stroke-linecap="round" stroke-linejoin="round"/>
</svg>
